<svg xmlns="http://www.w3.org/2000/svg" width="167.01" height="78.517" viewBox="0 0 167.01 78.517">
  <g id="Camellia_Bowl_9.19" data-name="Camellia Bowl 9.19" transform="translate(-146.07 -80.643)">
    <path id="Path_134" data-name="Path 134" d="M168.7,92.931A11.317,11.317,0,1,1,157.387,81.62,11.316,11.316,0,0,1,168.7,92.931Z" transform="translate(0 -0.438)" fill="#ea0029"/>
    <g id="Group_4021" data-name="Group 4021" transform="translate(146.083 80.643)">
      <g id="Group_4020" data-name="Group 4020">
        <path id="Path_135" data-name="Path 135" d="M160.73,83.325c.992-1.747,3.763-2.281,6.4-1.168a6.635,6.635,0,0,1,3.2,2.705c-.4-1.785-2.281-3.433-4.8-4.011-2.887-.661-5.62.309-6.479,2.187A3.519,3.519,0,0,1,160.73,83.325Z" transform="translate(-151.912 -80.643)" fill="#fff"/>
        <path id="Path_136" data-name="Path 136" d="M153.975,111.566c-1.7.628-4.05-.27-5.664-2.292a6.515,6.515,0,0,1-1.521-4.154c-.832,1.8,0,4.43,2.121,6.3,1.989,1.758,4.49,2.3,6.182,1.51A3.484,3.484,0,0,1,153.975,111.566Z" transform="translate(-146.264 -91.634)" fill="#fff"/>
        <path id="Path_137" data-name="Path 137" d="M173.966,111.58a3.354,3.354,0,0,1-1.675.771c.011.055.017.11.022.165.215,2.138-2.055,4.116-5.058,4.419a6.878,6.878,0,0,1-3.675-.6,6.326,6.326,0,0,0,5.857.942c3.135-.876,5.174-3.4,4.546-5.636A.446.446,0,0,0,173.966,111.58Z" transform="translate(-153.946 -94.535)" fill="#fff"/>
        <path id="Path_138" data-name="Path 138" d="M184.351,95.725c-.336-2.86-2.061-5.041-4.022-5.355a3.061,3.061,0,0,1-.039,1.609c1.939.4,3.322,2.81,3.163,5.631a6.448,6.448,0,0,1-1.758,4.231C183.53,101.07,184.681,98.552,184.351,95.725Z" transform="translate(-161.449 -85.011)" fill="#fff"/>
        <path id="Path_139" data-name="Path 139" d="M147.778,93.646a1.015,1.015,0,0,1,.138-.094c-1.157-1.548-.694-4.226,1.174-6.27a6.758,6.758,0,0,1,3.262-2.033,6.3,6.3,0,0,0-5.047,3.207c-1.466,2.292-1.581,4.926-.446,6.457A3.033,3.033,0,0,1,147.778,93.646Z" transform="translate(-146.094 -82.711)" fill="#fff"/>
      </g>
      <path id="Path_140" data-name="Path 140" d="M172.319,92.778c1.289-.347,2.738.837,3.24,2.656a4.01,4.01,0,0,1-.2,2.86c.948-.876,1.069-2.672.209-4.309-.871-1.664-2.457-2.59-3.725-2.259A2.106,2.106,0,0,1,172.319,92.778Z" transform="translate(-157.655 -85.59)" fill="#fff"/>
      <path id="Path_141" data-name="Path 141" d="M174.133,103.95a1.982,1.982,0,0,1-1.168.942c-.011.006-.028.006-.044.011a.784.784,0,0,1,.066.116c.639,1.185-.2,2.865-1.862,3.758a4.355,4.355,0,0,1-1.835.534,4.248,4.248,0,0,0,3.455-.876c1.68-1.251,2.32-3.234,1.427-4.43A.2.2,0,0,0,174.133,103.95Z" transform="translate(-156.51 -91.109)" fill="#fff"/>
      <path id="Path_142" data-name="Path 142" d="M159.315,90.881c.237-1.234,1.774-2.1,3.559-1.961a4.118,4.118,0,0,1,2.435.964c-.529-1.157-2.165-1.857-3.967-1.6-1.934.275-3.372,1.543-3.383,2.9A2.346,2.346,0,0,1,159.315,90.881Z" transform="translate(-151.422 -84.051)" fill="#fff"/>
      <path id="Path_143" data-name="Path 143" d="M160.849,110.168a3.449,3.449,0,0,1-3.725-.292,4.111,4.111,0,0,1-1.7-2.066c-.27,1.333.871,2.876,2.694,3.554a3.958,3.958,0,0,0,3.945-.419A2.04,2.04,0,0,1,160.849,110.168Z" transform="translate(-150.268 -92.842)" fill="#fff"/>
      <path id="Path_144" data-name="Path 144" d="M154.364,99.684c.017-.028.044-.05.066-.083-.992-.689-1.251-2.364-.551-3.939a4.248,4.248,0,0,1,1.532-1.862,3.854,3.854,0,0,0-2.606,3.174,3.761,3.761,0,0,0,1.289,4.017A1.981,1.981,0,0,1,154.364,99.684Z" transform="translate(-149.06 -86.551)" fill="#fff"/>
      <path id="Path_145" data-name="Path 145" d="M166.128,99.408a4.592,4.592,0,0,1-.138-1.708,4.354,4.354,0,0,1-1.983.292,4.48,4.48,0,0,1-1.427-.342,4.459,4.459,0,0,1-.391,1.7,4.527,4.527,0,0,1-.9,1.339,4.571,4.571,0,0,1,2.6,2.066,4.61,4.61,0,0,1,3.141-1.636A4.275,4.275,0,0,1,166.128,99.408Zm-1.961,1.818a1.245,1.245,0,1,1,1.245-1.245A1.247,1.247,0,0,1,164.166,101.226Z" transform="translate(-152.918 -88.28)" fill="#fff"/>
    </g>
    <path id="Path_146" data-name="Path 146" d="M423.844,92.931A11.317,11.317,0,1,1,412.527,81.62,11.316,11.316,0,0,1,423.844,92.931Z" transform="translate(-114.565 -0.438)" fill="#ea1d2c"/>
    <g id="Group_4023" data-name="Group 4023" transform="translate(286.661 80.643)">
      <g id="Group_4022" data-name="Group 4022">
        <path id="Path_147" data-name="Path 147" d="M415.87,83.325c.992-1.747,3.763-2.281,6.4-1.168a6.65,6.65,0,0,1,3.207,2.705c-.4-1.785-2.281-3.433-4.8-4.011-2.887-.661-5.62.309-6.485,2.187A3.519,3.519,0,0,1,415.87,83.325Z" transform="translate(-407.055 -80.643)" fill="#fff"/>
        <path id="Path_148" data-name="Path 148" d="M409.115,111.566c-1.7.628-4.055-.27-5.664-2.292a6.516,6.516,0,0,1-1.521-4.154c-.832,1.8,0,4.43,2.121,6.3,1.989,1.758,4.49,2.3,6.182,1.51A3.532,3.532,0,0,1,409.115,111.566Z" transform="translate(-401.407 -91.634)" fill="#fff"/>
        <path id="Path_149" data-name="Path 149" d="M429.106,111.58a3.332,3.332,0,0,1-1.675.771c.011.055.017.11.028.165.209,2.138-2.055,4.116-5.063,4.419a6.887,6.887,0,0,1-3.675-.6,6.326,6.326,0,0,0,5.857.942c3.135-.876,5.174-3.4,4.545-5.636A.438.438,0,0,0,429.106,111.58Z" transform="translate(-409.089 -94.535)" fill="#fff"/>
        <path id="Path_150" data-name="Path 150" d="M439.5,95.725c-.336-2.86-2.061-5.041-4.022-5.355a3.119,3.119,0,0,1-.033,1.609c1.939.4,3.322,2.81,3.163,5.631a6.421,6.421,0,0,1-1.758,4.231C438.674,101.07,439.826,98.552,439.5,95.725Z" transform="translate(-416.596 -85.011)" fill="#fff"/>
        <path id="Path_151" data-name="Path 151" d="M402.92,93.646a1.016,1.016,0,0,1,.138-.094c-1.157-1.548-.694-4.226,1.174-6.27a6.758,6.758,0,0,1,3.262-2.033,6.3,6.3,0,0,0-5.047,3.207c-1.46,2.292-1.581,4.926-.441,6.457A3.019,3.019,0,0,1,402.92,93.646Z" transform="translate(-401.239 -82.711)" fill="#fff"/>
      </g>
      <path id="Path_152" data-name="Path 152" d="M427.455,92.778c1.289-.347,2.738.837,3.24,2.656a4.039,4.039,0,0,1-.2,2.86c.948-.876,1.074-2.672.2-4.309-.871-1.664-2.452-2.59-3.725-2.259A2.026,2.026,0,0,1,427.455,92.778Z" transform="translate(-412.793 -85.59)" fill="#fff"/>
      <path id="Path_153" data-name="Path 153" d="M429.288,103.95a1.982,1.982,0,0,1-1.168.942c-.017.006-.033.006-.044.011a.79.79,0,0,1,.066.116c.639,1.185-.2,2.865-1.862,3.758a4.378,4.378,0,0,1-1.829.534,4.252,4.252,0,0,0,3.455-.876c1.68-1.251,2.32-3.234,1.427-4.43A.319.319,0,0,1,429.288,103.95Z" transform="translate(-411.662 -91.109)" fill="#fff"/>
      <path id="Path_154" data-name="Path 154" d="M414.455,90.881c.237-1.234,1.774-2.1,3.559-1.961a4.118,4.118,0,0,1,2.435.964c-.529-1.157-2.16-1.857-3.967-1.6-1.934.275-3.366,1.543-3.383,2.9A2.346,2.346,0,0,1,414.455,90.881Z" transform="translate(-406.565 -84.051)" fill="#fff"/>
      <path id="Path_155" data-name="Path 155" d="M415.989,110.168a3.449,3.449,0,0,1-3.725-.292,4.169,4.169,0,0,1-1.7-2.066c-.27,1.333.871,2.876,2.7,3.554a3.946,3.946,0,0,0,3.939-.419A2.04,2.04,0,0,1,415.989,110.168Z" transform="translate(-405.41 -92.842)" fill="#fff"/>
      <path id="Path_156" data-name="Path 156" d="M409.514,99.684c.017-.028.044-.05.066-.083-.992-.689-1.251-2.364-.551-3.939A4.248,4.248,0,0,1,410.56,93.8a3.845,3.845,0,0,0-2.606,3.174,3.761,3.761,0,0,0,1.289,4.017A1.919,1.919,0,0,1,409.514,99.684Z" transform="translate(-404.207 -86.551)" fill="#fff"/>
      <path id="Path_157" data-name="Path 157" d="M421.268,99.408a4.591,4.591,0,0,1-.138-1.708,4.355,4.355,0,0,1-1.983.292,4.516,4.516,0,0,1-1.427-.342,4.627,4.627,0,0,1-1.289,3.041,4.572,4.572,0,0,1,2.6,2.066,4.61,4.61,0,0,1,3.141-1.636A4.345,4.345,0,0,1,421.268,99.408Zm-1.961,1.818a1.245,1.245,0,1,1,1.24-1.245A1.247,1.247,0,0,1,419.306,101.226Z" transform="translate(-408.06 -88.28)" fill="#fff"/>
    </g>
    <g id="Group_4024" data-name="Group 4024" transform="translate(147.921 150.405)">
      <path id="Path_158" data-name="Path 158" d="M152.119,214.657H149.43v-.893l.722-.116v-5.19l-.722-.116v-.893h2.441l1.824,4.435,1.8-4.435h2.452v.893l-.749.116v5.19l.749.116v.893h-2.689v-.893l.722-.116.039-4.468-1.7,4.055h-1.289l-1.708-4.033.044,4.446.749.116Z" transform="translate(-149.43 -207.345)" fill="#ea1d2c"/>
      <path id="Path_159" data-name="Path 159" d="M170.47,209.26a1.806,1.806,0,0,1,2.006-2h1.7a1.787,1.787,0,0,1,2,1.967v3.482a1.787,1.787,0,0,1-2,1.967h-1.7a1.792,1.792,0,0,1-2.006-1.967Zm1.35,3.488c0,.523.193.749.661.749h1.686c.463,0,.661-.226.661-.749v-3.559c0-.523-.193-.749-.661-.749h-1.686c-.463,0-.661.226-.661.749Z" transform="translate(-158.878 -207.26)" fill="#ea1d2c"/>
      <path id="Path_160" data-name="Path 160" d="M191.69,214.668a.642.642,0,0,1-.7-.4l-2.623-5.135.033,4.518.749.116v.893h-2.7v-.893l.711-.116v-5.19l-.711-.116v-.893h2.419l2.821,5.488-.033-4.479-.722-.116v-.893h2.634v.893l-.689.116v5.631a.509.509,0,0,1-.584.579Z" transform="translate(-166.053 -207.345)" fill="#ea1d2c"/>
      <path id="Path_161" data-name="Path 161" d="M209.963,207.45l.022,2.121h-.9l-.187-1.041h-1.14v5.118l.733.116v.893H205.71v-.893l.722-.116V208.53h-1.141l-.187,1.041h-.9l.022-2.121Z" transform="translate(-174.023 -207.345)" fill="#ea1d2c"/>
      <path id="Path_162" data-name="Path 162" d="M223.468,214.676h-1.543a1.808,1.808,0,0,1-2.006-2V209.26a1.811,1.811,0,0,1,2.006-2h1.284a1.47,1.47,0,0,1,1.174.568l.176-.568h.893V209.6h-1.113l-.072-.4c-.094-.534-.358-.744-.8-.744h-1.532c-.474,0-.667.226-.667.749v3.543c0,.523.193.749.667.749h1.532c.485,0,.7-.248.7-.749v-.926H222.8v-1.091h2.667v1.945A1.806,1.806,0,0,1,223.468,214.676Z" transform="translate(-181.082 -207.26)" fill="#ea1d2c"/>
      <path id="Path_163" data-name="Path 163" d="M236.01,209.26a1.806,1.806,0,0,1,2.006-2h1.7a1.787,1.787,0,0,1,2,1.967v3.482a1.787,1.787,0,0,1-2,1.967h-1.7a1.792,1.792,0,0,1-2.006-1.967Zm1.35,3.488c0,.523.193.749.661.749h1.686c.463,0,.661-.226.661-.749v-3.559c0-.523-.193-.749-.661-.749h-1.686c-.463,0-.661.226-.661.749Z" transform="translate(-188.307 -207.26)" fill="#ea1d2c"/>
      <path id="Path_164" data-name="Path 164" d="M254.649,214.657H251.96v-.893l.722-.116v-5.19l-.722-.116v-.893H254.4l1.824,4.435,1.8-4.435h2.452v.893l-.749.116v5.19l.749.116v.893h-2.689v-.893l.722-.116.039-4.468-1.7,4.055h-1.289l-1.708-4.033.044,4.446.749.116Z" transform="translate(-195.469 -207.345)" fill="#ea1d2c"/>
      <path id="Path_165" data-name="Path 165" d="M273.292,208.458l-.722-.116v-.893h5.8v1.995h-.948l-.176-.915H274.6v1.945h1.223l.116-.689h.865v2.4h-.865l-.121-.617H274.6v2.006h2.667l.165-.915h.948v1.994H272.57v-.893l.722-.116v-5.185Z" transform="translate(-204.724 -207.345)" fill="#ea1d2c"/>
      <path id="Path_166" data-name="Path 166" d="M292.625,207.446c1.141,0,1.686.722,1.686,1.862v.556a1.629,1.629,0,0,1-1.256,1.8l.915,1.945.76.143v.893h-1.686l-1.339-2.931h-1.256v1.923l.7.116v.893H288.41v-.893l.711-.116v-5.19l-.711-.116v-.893h4.215Zm-.132,3.19c.342,0,.507-.176.507-.556v-.986c0-.38-.165-.556-.507-.556h-2.039v2.1h2.039Z" transform="translate(-211.836 -207.341)" fill="#ea1d2c"/>
      <path id="Path_167" data-name="Path 167" d="M305.408,214.661v-.893l.722-.116v-1.625l-1.884-3.559-.545-.116v-.893h2.4v.893l-.452.116,1.163,2.4,1.163-2.4-.474-.116v-.893h2.369v.893l-.545.116-1.862,3.51v1.68l.711.116v.893h-2.76Z" transform="translate(-218.702 -207.35)" fill="#ea1d2c"/>
      <path id="Path_168" data-name="Path 168" d="M318.366,219.408V218.08h1.444v1.587a1.077,1.077,0,0,1-1.212,1.207h-.3v-.733h.275c.237,0,.4-.072.4-.452v-.275h-.612Z" transform="translate(-225.258 -212.118)" fill="#ea1d2c"/>
      <path id="Path_169" data-name="Path 169" d="M336.824,214.625H334.19v-.9l.617-.1,1.763-5.6c.143-.463.259-.639.617-.639h.865c.358,0,.485.193.628.639l1.752,5.6.617.1v.9h-2.689v-.893l.711-.116-.286-.986h-2.391l-.3.986.733.116v.893Zm-.121-3.047h1.769l-.865-2.937h-.033Z" transform="translate(-232.393 -207.314)" fill="#ea1d2c"/>
      <path id="Path_170" data-name="Path 170" d="M353.5,213.577h2.286l.165-.959h.948v2.039H351.46v-.893l.722-.116v-5.19l-.722-.116v-.893h2.8v.893l-.749.116v5.119Z" transform="translate(-240.147 -207.345)" fill="#ea1d2c"/>
      <path id="Path_171" data-name="Path 171" d="M369.074,214.625H366.44v-.9l.617-.1,1.763-5.6c.143-.463.259-.639.617-.639h.865c.358,0,.485.193.628.639l1.752,5.6.617.1v.9h-2.694v-.893l.711-.116-.286-.986h-2.386l-.3.986.733.116v.893Zm-.127-3.047h1.769l-.865-2.937h-.033Z" transform="translate(-246.874 -207.314)" fill="#ea1d2c"/>
      <path id="Path_172" data-name="Path 172" d="M383.7,214.657v-.893l.722-.116v-5.19l-.722-.116v-.893h4.182a1.5,1.5,0,0,1,1.686,1.565v.843a1.05,1.05,0,0,1-.76,1.069,1.108,1.108,0,0,1,.843,1.124v1.041a1.5,1.5,0,0,1-1.691,1.565Zm4.022-4.209a.469.469,0,0,0,.534-.485v-.948a.455.455,0,0,0-.507-.485h-2.028v1.917Zm-1.995,1.091v2.039h2.11a.445.445,0,0,0,.507-.474v-1.08a.453.453,0,0,0-.507-.485Z" transform="translate(-254.624 -207.345)" fill="#ea1d2c"/>
      <path id="Path_173" data-name="Path 173" d="M401.844,214.625H399.21v-.9l.617-.1,1.763-5.6c.143-.463.259-.639.617-.639h.865c.358,0,.485.193.628.639l1.752,5.6.617.1v.9h-2.689v-.893l.711-.116-.287-.986h-2.391l-.3.986.733.116v.893Zm-.127-3.047h1.769l-.865-2.937h-.033Z" transform="translate(-261.589 -207.314)" fill="#ea1d2c"/>
      <path id="Path_174" data-name="Path 174" d="M419.149,214.657H416.46v-.893l.722-.116v-5.19l-.722-.116v-.893H418.9l1.824,4.435,1.8-4.435h2.452v.893l-.749.116v5.19l.749.116v.893h-2.689v-.893l.722-.116.039-4.468-1.7,4.055h-1.289l-1.708-4.033.044,4.446.749.116Z" transform="translate(-269.334 -207.345)" fill="#ea1d2c"/>
      <path id="Path_175" data-name="Path 175" d="M439.374,214.625H436.74v-.9l.617-.1,1.763-5.6c.143-.463.259-.639.617-.639h.865c.358,0,.485.193.628.639l1.752,5.6.617.1v.9h-2.689v-.893l.711-.116-.287-.986h-2.391l-.3.986.733.116v.893Zm-.127-3.047h1.769l-.865-2.937h-.033Z" transform="translate(-278.441 -207.314)" fill="#ea1d2c"/>
    </g>
    <g id="Group_4025" data-name="Group 4025" transform="translate(171.899 85.683)">
      <path id="Path_176" data-name="Path 176" d="M200.7,105.977H197.33c-2.92,0-4.38-1.664-4.38-4.358V94.154c0-2.694,1.46-4.336,4.38-4.364h2.81a3.213,3.213,0,0,1,2.562,1.24l.38-1.24h1.956v5.218h-2.43l-.154-.986c-.2-1.168-.782-1.62-1.752-1.62h-3.35c-1.036,0-1.466.5-1.466,1.642v7.736c0,1.146.43,1.642,1.466,1.642h3.372c1.008,0,1.438-.634,1.438-1.708v-.7h2.9v.612C205.066,104.314,203.628,105.977,200.7,105.977Z" transform="translate(-192.95 -89.79)" fill="#0d76bd"/>
      <path id="Path_177" data-name="Path 177" d="M222.638,105.858H216.88V103.88l1.35-.22,3.846-12.226c.314-1.014.562-1.394,1.35-1.394h1.884c.788,0,1.058.424,1.372,1.394l3.824,12.226,1.35.22v1.978h-5.868V103.9l1.554-.248-.634-2.16H221.69l-.65,2.16,1.6.248Zm-.264-6.65h3.868l-1.89-6.4h-.066Z" transform="translate(-203.695 -89.902)" fill="#0d76bd"/>
      <path id="Path_178" data-name="Path 178" d="M252.288,105.93H246.42v-1.956l1.576-.248V92.4l-1.576-.248V90.2h5.328l3.978,9.686L259.66,90.2h5.35v1.956l-1.642.248v11.328l1.642.248v1.956h-5.862V103.98l1.57-.248.088-9.758-3.708,8.86h-2.81l-3.73-8.81.088,9.708,1.642.248Z" transform="translate(-216.96 -89.974)" fill="#0d76bd"/>
      <path id="Path_179" data-name="Path 179" d="M284.836,92.4l-1.576-.248V90.2h12.656v4.364H293.85l-.38-2h-5.78v4.248h2.678l.242-1.5h1.89v5.24h-1.89l-.264-1.35H287.69v4.386h5.824l.358-2h2.066v4.358H283.26v-1.956l1.576-.248Z" transform="translate(-233.502 -89.974)" fill="#0d76bd"/>
      <path id="Path_180" data-name="Path 180" d="M314.114,103.578h4.992l.358-2.088h2.066v4.446H309.64V103.98l1.576-.248V92.4l-1.576-.248V90.2h6.116v1.956l-1.642.248Z" transform="translate(-245.347 -89.974)" fill="#0d76bd"/>
      <path id="Path_181" data-name="Path 181" d="M338.589,103.578h4.986l.358-2.088H346v4.446H334.11V103.98l1.576-.248V92.4l-1.576-.248V90.2h6.116v1.956l-1.636.248Z" transform="translate(-256.335 -89.974)" fill="#0d76bd"/>
      <path id="Path_182" data-name="Path 182" d="M358.59,103.98l1.576-.248V92.4l-1.576-.248V90.2h6.05v1.956l-1.576.248v11.328l1.576.248v1.956h-6.05Z" transform="translate(-267.327 -89.974)" fill="#0d76bd"/>
      <path id="Path_183" data-name="Path 183" d="M377.692,105.858H371.94V103.88l1.35-.22,3.84-12.226c.32-1.014.562-1.394,1.355-1.394h1.884c.788,0,1.058.424,1.372,1.394l3.818,12.226,1.35.22v1.978h-5.868V103.9l1.554-.248-.628-2.16h-5.212l-.65,2.16,1.6.248v1.956Zm-.27-6.65h3.862l-1.884-6.4h-.066Z" transform="translate(-273.322 -89.902)" fill="#0d76bd"/>
    </g>
    <path id="Path_184" data-name="Path 184" d="M178.951,148.478a7.672,7.672,0,0,0,4.711-7.185v-2.342c0-5.736-3.984-9.581-10.38-9.581H149.43v7.185l3.873.391v23.791l-3.873.386v7.245h24.3c6.452,0,10.435-3.84,10.435-9.581v-2.9A7.874,7.874,0,0,0,178.951,148.478ZM163.86,137.5h7.295a1.775,1.775,0,0,1,1.906,1.84v3.51a1.778,1.778,0,0,1-1.906,1.84H163.86v-5.5l-2.38-1.691h2.38Zm9.7,20.838a1.736,1.736,0,0,1-1.906,1.785h-7.8v-7.08h7.8a1.778,1.778,0,0,1,1.906,1.84Z" transform="translate(-1.509 -21.88)" fill="#0d76bd"/>
    <path id="Path_185" data-name="Path 185" d="M414.215,155.156l-1,5.069H401.791V137.569L399.6,136.01h6.039v-6.65H387.19v7.245l3.846.391v23.785l-3.846.391v7.19h34.155V155.156Z" transform="translate(-108.27 -21.875)" fill="#0d76bd"/>
    <path id="Path_186" data-name="Path 186" d="M332.756,136.01h5.912v-6.65H321.775v7.13l3.366.446-3.758,19.719-5.5-21.725h-10.16L300,157.162l-3.647-19.615-2.165-1.537h5.135v-6.65H282.43v7.245l2.865.336,6.507,27.582c.617,2.782,1.8,4.231,4.375,4.231h7.13c2.579,0,3.477-1.449,4.094-4.231l3.141-14.094,3.146,14.094c.617,2.782,1.8,4.231,4.43,4.231h6.843c2.584,0,3.647-1.449,4.32-4.231L335.538,138Z" transform="translate(-61.23 -21.875)" fill="#0d76bd"/>
    <path id="Path_187" data-name="Path 187" d="M237.9,128.05h-7.521c-8.926,0-13.642,4.849-13.642,12.424v16.1c0,7.24,4.716,11.923,13.642,11.923H237.9c8.81,0,13.526-4.683,13.526-11.923V139.918C251.429,132.673,246.713,128.05,237.9,128.05Zm2.358,28.524c0,1.78-.617,2.562-2.579,2.562H230.5c-2.022,0-2.584-.782-2.584-2.562v-16.6c0-.171.011-.325.022-.479l-3.444-1.995h5.058a5.187,5.187,0,0,1,.948-.088h7.185c1.961,0,2.579.777,2.579,2.562Z" transform="translate(-31.733 -21.287)" fill="#0d76bd"/>
  </g>
</svg>
