<svg xmlns="http://www.w3.org/2000/svg" width="26.143" height="18.382" viewBox="0 0 26.143 18.382">
  <path id="Icon_-_Youtube" data-name="Icon - Youtube" d="M26.647,7.376A3.285,3.285,0,0,0,24.335,5.05C22.3,4.5,14.121,4.5,14.121,4.5s-8.175,0-10.214.55A3.285,3.285,0,0,0,1.6,7.376a34.459,34.459,0,0,0-.546,6.333A34.459,34.459,0,0,0,1.6,20.043a3.236,3.236,0,0,0,2.311,2.289c2.039.55,10.214.55,10.214.55s8.175,0,10.214-.55a3.236,3.236,0,0,0,2.311-2.289,34.459,34.459,0,0,0,.546-6.333,34.459,34.459,0,0,0-.546-6.333ZM11.448,17.6V9.822l6.833,3.887L11.448,17.6Z" transform="translate(-1.05 -4.5)" fill="#fff"/>
</svg>
